HIERARCHY
ROOT Hips
{
	OFFSET 0.000000 0.000000 0.000000
	CHANNELS 6 Xposition Yposition Zposition Zrotation Yrotation Xrotation 
	JOINT LowerBack
	{
		OFFSET 0.000000 0.000000 0.000000
		CHANNELS 3 Zrotation Yrotation Xrotation
		JOINT Spine
		{
			OFFSET 0.028270 2.035590 -0.193380
			CHANNELS 3 Zrotation Yrotation Xrotation
			JOINT Spine1
			{
				OFFSET 0.056720 2.048850 -0.042750
				CHANNELS 3 Zrotation Yrotation Xrotation
				JOINT Neck
				{
					OFFSET 0.000000 0.000000 0.000000
					CHANNELS 3 Zrotation Yrotation Xrotation
					JOINT Neck1
					{
						OFFSET -0.054170 1.746240 0.172020
						CHANNELS 3 Zrotation Yrotation Xrotation
						JOINT Head
						{
							OFFSET 0.104070 1.761360 -0.123970
							CHANNELS 3 Zrotation Yrotation Xrotation
							End Site
							{
								OFFSET 0.000000 0.000000 0.000000
							}
						}
					}
				}
				JOINT LeftShoulder
				{
					OFFSET 0.000000 0.000000 0.000000
					CHANNELS 3 Zrotation Yrotation Xrotation
					JOINT LeftArm
					{
						OFFSET 3.362410 1.200890 -0.311210
						CHANNELS 3 Zrotation Yrotation Xrotation
						JOINT LeftForeArm
						{
							OFFSET 4.983000 -0.000000 -0.000000
							CHANNELS 3 Zrotation Yrotation Xrotation
							JOINT LeftHand
							{
								OFFSET 3.483560 -0.000000 -0.000000
								CHANNELS 3 Zrotation Yrotation Xrotation
								JOINT LeftFingerBase
								{
									OFFSET 0.000000 0.000000 0.000000
									CHANNELS 3 Zrotation Yrotation Xrotation
									JOINT LeftHandIndex1
									{
										OFFSET 0.715260 -0.000000 -0.000000
										CHANNELS 3 Zrotation Yrotation Xrotation
										End Site
										{
											OFFSET 0.000000 0.000000 0.000000
										}
									}
								}
								JOINT LThumb
								{
									OFFSET 0.000000 0.000000 0.000000
									CHANNELS 3 Zrotation Yrotation Xrotation
									End Site
									{
										OFFSET 0.000000 0.000000 0.000000
									}
								}
							}
						}
					}
				}
				JOINT RightShoulder
				{
					OFFSET 0.000000 0.000000 0.000000
					CHANNELS 3 Zrotation Yrotation Xrotation
					JOINT RightArm
					{
						OFFSET -3.136600 1.374050 -0.404650
						CHANNELS 3 Zrotation Yrotation Xrotation
						JOINT RightForeArm
						{
							OFFSET -5.241900 -0.000000 -0.000000
							CHANNELS 3 Zrotation Yrotation Xrotation
							JOINT RightHand
							{
								OFFSET -3.444170 -0.000000 -0.000000
								CHANNELS 3 Zrotation Yrotation Xrotation
								JOINT RightFingerBase
								{
									OFFSET 0.000000 0.000000 0.000000
									CHANNELS 3 Zrotation Yrotation Xrotation
									JOINT RightHandIndex1
									{
										OFFSET -0.622530 -0.000000 -0.000000
										CHANNELS 3 Zrotation Yrotation Xrotation
										End Site
										{
											OFFSET 0.000000 0.000000 0.000000
										}
									}
								}
								JOINT RThumb
								{
									OFFSET 0.000000 0.000000 0.000000
									CHANNELS 3 Zrotation Yrotation Xrotation
									End Site
									{
										OFFSET 0.000000 0.000000 0.000000
									}
								}
							}
						}
					}
				}
			}
		}
	}
}
}
MOTION
Frames: 6
Frame Time: 0.008333
6.290640 18.008243 2.321428 173.297162 -88.331556 -130.238092 -0.744478 -1.008480 0.218582 -0.489801 -0.960506 -3.133603 -3.375577 -0.992476 -1.990400 2.497483 -4.634645 -2.568523 -1.038509 -0.136500 1.078582 0.000000 0.000000 0.000000 8.234760 -3.637459 0.904851 -59.896714 -41.047598 5.197849 -0.108464 -75.568635 -0.134929 12.943978 -6.837885 -0.868983 -0.179239 0.713220 -0.000000 0.000000 0.000000 0.000000 0.000000 0.000000 0.000000 -2.567397 0.408193 0.936938 65.998402 40.559482 15.901529 0.131034 69.628339 -0.107371 -14.101389 13.609943 -1.790703 0.164572 -0.623806 -0.000000 0.000000 0.000000 0.000000 0.000000 0.000000 0.000000 
6.142852 18.172303 2.306103 178.141561 -88.123160 -134.733848 -0.771458 -0.980463 0.053239 -0.447320 -0.928341 -3.180748 -3.156855 -0.958105 -2.054914 2.316226 -4.660891 -2.473362 -0.875430 -0.127407 1.106187 0.000000 0.000000 0.000000 8.927524 -3.234605 0.708438 -59.313710 -42.145356 4.181811 -0.066251 -78.665005 -0.137035 12.491525 -6.573664 -0.810928 -0.164559 0.735942 -0.000000 0.000000 0.000000 0.000000 0.000000 0.000000 0.000000 -3.636172 0.459861 0.806187 64.464781 41.611683 14.479190 0.091221 72.778931 -0.112314 -13.848495 13.571203 -1.756585 0.159659 -0.650899 -0.000000 0.000000 0.000000 0.000000 0.000000 0.000000 0.000000 
5.999889 18.321567 2.290598 -179.163672 -87.982454 -136.862538 -0.783833 -0.974187 -0.187918 -0.398073 -0.919559 -3.246747 -2.924334 -0.948488 -2.117297 2.143139 -4.732372 -2.423595 -0.701730 -0.116744 1.118994 0.000000 0.000000 0.000000 9.734147 -2.786649 0.504640 -58.661060 -43.199505 2.935666 -0.052151 -81.834928 -0.141135 12.260741 -6.318699 -0.769987 -0.153275 0.758733 -0.000000 0.000000 0.000000 0.000000 0.000000 0.000000 0.000000 -4.744720 0.431865 0.668713 62.755314 42.634791 12.676806 0.062821 76.026699 -0.118400 -13.716923 13.514609 -1.736175 0.156490 -0.679546 -0.000000 0.000000 0.000000 0.000000 0.000000 0.000000 0.000000 
5.862010 18.456445 2.275040 -178.233003 -87.922549 -137.035502 -0.786923 -0.991114 -0.481205 -0.343429 -0.934937 -3.326645 -2.681702 -0.964343 -2.176630 1.979159 -4.845392 -2.406577 -0.521974 -0.104952 1.120289 0.000000 0.000000 0.000000 10.648597 -2.304489 0.292249 -57.906195 -44.192261 1.434048 -0.074159 -85.078046 -0.147871 12.292757 -6.091348 -0.749364 -0.146903 0.781542 -0.000000 0.000000 0.000000 0.000000 0.000000 0.000000 0.000000 -5.868470 0.317726 0.522604 60.824711 43.619717 10.476959 0.051443 79.347788 -0.126194 -13.783014 13.425908 -1.737378 0.156768 -0.709073 -0.000000 0.000000 0.000000 0.000000 0.000000 0.000000 0.000000 
5.729495 18.577652 2.259560 -178.849956 -87.945454 -135.502278 -0.779596 -1.029355 -0.802327 -0.283972 -0.972304 -3.415167 -2.434769 -1.003413 -2.231255 1.824740 -4.990653 -2.407652 -0.341820 -0.092605 1.114074 0.000000 0.000000 0.000000 11.650717 -1.797332 0.073261 -57.002388 -45.110176 -0.347564 -0.139092 -88.387095 -0.157622 12.602790 -5.913114 -0.750860 -0.146685 0.804279 0.000000 0.000000 0.000000 0.000000 0.000000 0.000000 0.000000 -6.978499 0.119764 0.366610 58.622580 44.549519 7.860883 0.063074 82.714267 -0.136255 -14.114316 13.294635 -1.766901 0.162293 -0.738622 -0.000000 0.000000 0.000000 0.000000 0.000000 0.000000 0.000000 
5.602124 18.685935 2.244297 179.018645 -88.043571 -132.326241 -0.756753 -1.084383 -1.130527 -0.220061 -1.027199 -3.507406 -2.190854 -1.061125 -2.278490 1.679753 -5.155031 -2.411279 -0.167408 -0.080368 1.104771 0.000000 0.000000 0.000000 12.707024 -1.274198 -0.147193 -55.893358 -45.945158 -2.431103 179.749930 -88.254814 179.829578 13.180900 -5.806377 -0.775878 -0.153518 0.826779 -0.000000 0.000000 0.000000 0.000000 0.000000 0.000000 0.000000 -8.044175 -0.152359 0.200417 56.102249 45.397259 4.813273 0.103150 86.095857 -0.148692 -14.761263 13.113940 -1.829246 0.174797 -0.767131 -0.000000 0.000000 0.000000 0.000000 0.000000 0.000000 0.000000 
